<svg width="396" height="222" viewBox="0 0 396 222" fill="none" xmlns="http://www.w3.org/2000/svg">
<g clip-path="url(#clip0_5_21)">
<path d="M242.342 80.8209C241.253 80.8209 240.158 80.4513 239.262 79.6945C237.245 77.9925 236.99 74.9759 238.692 72.9589L266.164 40.4113L238.694 7.86358C236.992 5.84662 237.247 2.83174 239.264 1.12806C241.281 -0.575618 244.296 -0.320418 246 1.69654L276.073 37.3277C277.576 39.1089 277.576 41.7137 276.073 43.493L245.998 79.1225C245.053 80.2436 243.703 80.8209 242.342 80.8209Z" fill="#4CAF50"/>
<path d="M153.656 80.8209C152.297 80.8209 150.947 80.2436 150.002 79.1242L119.927 43.4948C118.424 41.7137 118.424 39.1089 119.927 37.3295L150.002 1.69831C151.704 -0.318653 154.721 -0.573852 156.738 1.12807C158.755 2.82999 159.01 5.84663 157.308 7.86359L129.833 40.413L157.304 72.9589C159.006 74.9759 158.753 77.9908 156.736 79.6945C155.838 80.4495 154.744 80.8209 153.656 80.8209Z" fill="#4CAF50"/>
<path d="M175.691 80.8209C174.825 80.8209 173.949 80.5851 173.16 80.0923C170.923 78.6913 170.244 75.7433 171.645 73.5064L216.25 2.24571C217.651 0.00874937 220.601 -0.668851 222.838 0.730349C225.075 2.13131 225.754 5.07931 224.353 7.31627L179.748 78.5769C178.842 80.0254 177.284 80.8209 175.691 80.8209Z" fill="#4CAF50"/>
<path d="M40.7255 150.228L57.7562 112.464H81.451L52.5729 176.588V216.129H28.8781V176.588L0 112.464H23.8429L40.7255 150.228ZM167.937 136.307H126.471V152.449H156.238V176.144H126.471V192.434H167.937V216.129H102.776V112.464H167.937V136.307ZM189.263 112.464H262.717V136.307H237.837V216.129H214.142V136.307H189.263V112.464ZM349.203 112.464V136.307L311.883 192.434H349.203V216.129H284.042V192.434L321.509 136.307H284.042V112.464H349.203ZM394.223 112.464V185.325H370.528V112.464H394.223ZM368.899 207.539C368.899 200.283 375.119 194.063 382.524 194.063C389.78 194.063 396 200.283 396 207.539C396 214.944 389.78 221.164 382.524 221.164C375.119 221.164 368.899 214.944 368.899 207.539Z" fill="#4CAF50"/>
</g>
<defs>
<clipPath id="clip0_5_21">
<rect width="396" height="221.164" fill="white"/>
</clipPath>
</defs>
</svg>
